<?xml version="1.0" standalone="no"?>
<!DOCTYPE svg PUBLIC "-//W3C//DTD SVG 20010904//EN"
 "http://www.w3.org/TR/2001/REC-SVG-20010904/DTD/svg10.dtd">
<svg version="1.0" xmlns="http://www.w3.org/2000/svg"
 width="122.000000pt" height="95.000000pt" viewBox="0 0 122.000000 95.000000"
 preserveAspectRatio="xMidYMid meet">
<metadata>
Created by potrace 1.10, written by Peter Selinger 2001-2011
</metadata>
<g transform="translate(0.000000,95.000000) scale(0.100000,-0.100000)"
fill="#4bb6ec" stroke="none">
<path d="M0 475 l0 -475 610 0 610 0 0 475 0 475 -610 0 -610 0 0 -475z m1050
455 c0 -5 -24 -10 -53 -10 -48 0 -53 -2 -63 -27 -14 -40 -17 -178 -4 -248 23
-126 28 -151 40 -200 24 -96 30 -105 62 -105 17 0 46 8 65 17 l36 17 -6 115
c-3 64 -9 126 -13 139 -4 13 -2 22 4 22 15 0 24 -73 26 -189 l1 -96 -45 -23
c-91 -46 -117 -25 -148 120 -13 57 -28 121 -35 142 -18 61 -15 253 5 299 17
36 18 37 72 37 31 0 56 -4 56 -10z m-473 -38 c14 -9 63 -79 63 -91 0 -4 13
-47 29 -95 16 -49 27 -93 25 -100 -7 -17 -130 -86 -153 -86 -61 0 -3 -39 80
-54 29 -5 46 -18 77 -59 62 -81 92 -149 92 -206 0 -43 -4 -53 -26 -67 -14 -10
-47 -19 -74 -22 -45 -4 -51 -2 -84 31 -20 20 -36 40 -36 46 0 5 -16 32 -36 61
-19 28 -38 68 -41 88 -3 21 -9 42 -13 47 -7 9 -24 79 -49 203 -12 58 -15 230
-5 257 13 33 120 67 151 47z m-349 -189 c30 -32 65 -82 78 -111 27 -58 27 -62
16 -62 -4 0 -16 22 -26 49 -19 53 -119 166 -140 158 -22 -9 -36 -108 -36 -255
1 -139 4 -161 39 -297 8 -29 67 -125 78 -125 3 0 19 15 36 33 30 31 31 36 35
135 2 56 8 102 13 102 14 0 11 -165 -3 -197 -16 -36 -62 -83 -81 -83 -29 0
-85 96 -108 182 -30 118 -38 336 -15 438 9 40 19 77 22 82 12 20 42 4 92 -49z"/>
<path d="M545 885 c-54 -13 -95 -31 -100 -44 -9 -22 -6 -218 5 -266 4 -22 14
-67 21 -100 7 -33 17 -63 22 -66 5 -4 11 -25 13 -48 1 -25 16 -63 38 -100 20
-32 36 -61 36 -64 0 -3 14 -19 31 -36 25 -25 39 -31 75 -31 25 0 55 7 67 15
37 24 30 95 -16 176 -55 97 -99 139 -144 139 -22 0 -123 42 -123 52 0 3 24 12
53 18 28 7 71 26 94 41 23 16 46 29 52 29 16 0 14 16 -19 120 -38 119 -72 172
-105 165z"/>
</g>
</svg>
